<svg id="visual" viewBox="0 0 900 600" width="900" height="600" xmlns="http://www.w3.org/2000/svg" xmlns:xlink="http://www.w3.org/1999/xlink" version="1.1"><path d="M0 25L15 26C30 27 60 29 90 30C120 31 150 31 180 34C210 37 240 43 270 42C300 41 330 33 360 28C390 23 420 21 450 22C480 23 510 27 540 29C570 31 600 31 630 34C660 37 690 43 720 48C750 53 780 57 810 51C840 45 870 29 885 21L900 13L900 0L885 0C870 0 840 0 810 0C780 0 750 0 720 0C690 0 660 0 630 0C600 0 570 0 540 0C510 0 480 0 450 0C420 0 390 0 360 0C330 0 300 0 270 0C240 0 210 0 180 0C150 0 120 0 90 0C60 0 30 0 15 0L0 0Z" fill="#090909"></path><path d="M0 73L15 71C30 69 60 65 90 73C120 81 150 101 180 119C210 137 240 153 270 152C300 151 330 133 360 121C390 109 420 103 450 94C480 85 510 73 540 75C570 77 600 93 630 107C660 121 690 133 720 130C750 127 780 109 810 105C840 101 870 111 885 116L900 121L900 11L885 19C870 27 840 43 810 49C780 55 750 51 720 46C690 41 660 35 630 32C600 29 570 29 540 27C510 25 480 21 450 20C420 19 390 21 360 26C330 31 300 39 270 40C240 41 210 35 180 32C150 29 120 29 90 28C60 27 30 25 15 24L0 23Z" fill="#0c0c0c"></path><path d="M0 127L15 126C30 125 60 123 90 130C120 137 150 153 180 174C210 195 240 221 270 220C300 219 330 191 360 180C390 169 420 175 450 170C480 165 510 149 540 149C570 149 600 165 630 174C660 183 690 185 720 174C750 163 780 139 810 136C840 133 870 151 885 160L900 169L900 119L885 114C870 109 840 99 810 103C780 107 750 125 720 128C690 131 660 119 630 105C600 91 570 75 540 73C510 71 480 83 450 92C420 101 390 107 360 119C330 131 300 149 270 150C240 151 210 135 180 117C150 99 120 79 90 71C60 63 30 67 15 69L0 71Z" fill="#0e0e0e"></path><path d="M0 169L15 164C30 159 60 149 90 153C120 157 150 175 180 195C210 215 240 237 270 235C300 233 330 207 360 198C390 189 420 197 450 196C480 195 510 185 540 184C570 183 600 191 630 200C660 209 690 219 720 209C750 199 780 169 810 162C840 155 870 171 885 179L900 187L900 167L885 158C870 149 840 131 810 134C780 137 750 161 720 172C690 183 660 181 630 172C600 163 570 147 540 147C510 147 480 163 450 168C420 173 390 167 360 178C330 189 300 217 270 218C240 219 210 193 180 172C150 151 120 135 90 128C60 121 30 123 15 124L0 125Z" fill="#101010"></path><path d="M0 283L15 274C30 265 60 247 90 240C120 233 150 237 180 268C210 299 240 357 270 365C300 373 330 331 360 319C390 307 420 325 450 317C480 309 510 275 540 283C570 291 600 341 630 349C660 357 690 323 720 305C750 287 780 285 810 285C840 285 870 287 885 288L900 289L900 185L885 177C870 169 840 153 810 160C780 167 750 197 720 207C690 217 660 207 630 198C600 189 570 181 540 182C510 183 480 193 450 194C420 195 390 187 360 196C330 205 300 231 270 233C240 235 210 213 180 193C150 173 120 155 90 151C60 147 30 157 15 162L0 167Z" fill="#121212"></path><path d="M0 313L15 302C30 291 60 269 90 266C120 263 150 279 180 314C210 349 240 403 270 407C300 411 330 365 360 349C390 333 420 347 450 338C480 329 510 297 540 310C570 323 600 381 630 391C660 401 690 363 720 346C750 329 780 333 810 331C840 329 870 321 885 317L900 313L900 287L885 286C870 285 840 283 810 283C780 283 750 285 720 303C690 321 660 355 630 347C600 339 570 289 540 281C510 273 480 307 450 315C420 323 390 305 360 317C330 329 300 371 270 363C240 355 210 297 180 266C150 235 120 231 90 238C60 245 30 263 15 272L0 281Z" fill="#141414"></path><path d="M0 367L15 360C30 353 60 339 90 341C120 343 150 361 180 386C210 411 240 443 270 441C300 439 330 403 360 396C390 389 420 411 450 404C480 397 510 361 540 369C570 377 600 429 630 441C660 453 690 425 720 411C750 397 780 397 810 393C840 389 870 381 885 377L900 373L900 311L885 315C870 319 840 327 810 329C780 331 750 327 720 344C690 361 660 399 630 389C600 379 570 321 540 308C510 295 480 327 450 336C420 345 390 331 360 347C330 363 300 409 270 405C240 401 210 347 180 312C150 277 120 261 90 264C60 267 30 289 15 300L0 311Z" fill="#161616"></path><path d="M0 403L15 394C30 385 60 367 90 365C120 363 150 377 180 405C210 433 240 475 270 476C300 477 330 437 360 425C390 413 420 429 450 422C480 415 510 385 540 396C570 407 600 459 630 470C660 481 690 451 720 435C750 419 780 417 810 415C840 413 870 411 885 410L900 409L900 371L885 375C870 379 840 387 810 391C780 395 750 395 720 409C690 423 660 451 630 439C600 427 570 375 540 367C510 359 480 395 450 402C420 409 390 387 360 394C330 401 300 437 270 439C240 441 210 409 180 384C150 359 120 341 90 339C60 337 30 351 15 358L0 365Z" fill="#171717"></path><path d="M0 439L15 428C30 417 60 395 90 396C120 397 150 421 180 451C210 481 240 517 270 514C300 511 330 469 360 462C390 455 420 483 450 477C480 471 510 431 540 438C570 445 600 499 630 512C660 525 690 497 720 479C750 461 780 453 810 453C840 453 870 461 885 465L900 469L900 407L885 408C870 409 840 411 810 413C780 415 750 417 720 433C690 449 660 479 630 468C600 457 570 405 540 394C510 383 480 413 450 420C420 427 390 411 360 423C330 435 300 475 270 474C240 473 210 431 180 403C150 375 120 361 90 363C60 365 30 383 15 392L0 401Z" fill="#191919"></path><path d="M0 601L15 601C30 601 60 601 90 601C120 601 150 601 180 601C210 601 240 601 270 601C300 601 330 601 360 601C390 601 420 601 450 601C480 601 510 601 540 601C570 601 600 601 630 601C660 601 690 601 720 601C750 601 780 601 810 601C840 601 870 601 885 601L900 601L900 467L885 463C870 459 840 451 810 451C780 451 750 459 720 477C690 495 660 523 630 510C600 497 570 443 540 436C510 429 480 469 450 475C420 481 390 453 360 460C330 467 300 509 270 512C240 515 210 479 180 449C150 419 120 395 90 394C60 393 30 415 15 426L0 437Z" fill="#1a1a1a"></path></svg>